<svg xmlns="http://www.w3.org/2000/svg" width="512" height="512" viewBox="0 0 512 512">
	<path d="M208 32L208 86.71875A176 176 0 0 0 170.36133 102.47852L131.54883 63.666016 63.666016 131.54883 102.37891 170.26172A176 176 0 0 0 86.835938 208L32 208 32 304 86.71875 304A176 176 0 0 0 102.47852 341.63867L63.666016 380.45117 131.54883 448.33398 170.26172 409.62109A176 176 0 0 0 208 425.16406L208 480 304 480 304 425.28125A176 176 0 0 0 341.63867 409.52148L380.45117 448.33398 448.33398 380.45117 409.62109 341.73828A176 176 0 0 0 425.16406 304L480 304 480 208 425.28125 208A176 176 0 0 0 409.52148 170.36133L448.33398 131.54883 380.45117 63.666016 341.73828 102.37891A176 176 0 0 0 304 86.835938L304 32 208 32zM256 160A96 96 0 0 1 352 256 96 96 0 0 1 256 352 96 96 0 0 1 160 256 96 96 0 0 1 256 160z" style="paint-order:normal;stroke-linejoin:round;fill:#00000066"/>
</svg>
